<svg xmlns="http://www.w3.org/2000/svg" viewBox="0 0 200 60" fill="none">
  <!-- Shield icon -->
  <g transform="translate(0, 2)">
    <!-- Shield body -->
    <path d="M28 4L8 12v16c0 12.7 8.5 24.5 20 28 11.5-3.5 20-15.3 20-28V12L28 4z" fill="#1a5223" stroke="#1a5223" stroke-width="1"/>
    <!-- Inner shield highlight -->
    <path d="M28 8L12 14.5v13.5c0 10.5 7 20.3 16 23.2 9-2.9 16-12.7 16-23.2V14.5L28 8z" fill="#1e6328"/>
    <!-- Crosshair/target (pest control motif) -->
    <circle cx="28" cy="28" r="8" stroke="white" stroke-width="1.5" fill="none" opacity="0.9"/>
    <circle cx="28" cy="28" r="3" fill="white" opacity="0.9"/>
    <line x1="28" y1="17" x2="28" y2="22" stroke="white" stroke-width="1.5" opacity="0.9"/>
    <line x1="28" y1="34" x2="28" y2="39" stroke="white" stroke-width="1.5" opacity="0.9"/>
    <line x1="17" y1="28" x2="22" y2="28" stroke="white" stroke-width="1.5" opacity="0.9"/>
    <line x1="34" y1="28" x2="39" y2="28" stroke="white" stroke-width="1.5" opacity="0.9"/>
  </g>
  <!-- Text -->
  <text x="60" y="28" font-family="'Montserrat', 'Arial Black', sans-serif" font-weight="800" font-size="22" fill="#1a5223" letter-spacing="1">FRONTLINE</text>
  <text x="60" y="46" font-family="'Montserrat', Arial, sans-serif" font-weight="600" font-size="9.5" fill="#737373" letter-spacing="2.5">TERMITE &amp; PEST CONTROL</text>
</svg>
